<?xml version="1.0" standalone="no"?>
<!DOCTYPE svg PUBLIC "-//W3C//DTD SVG 20010904//EN"
        "http://www.w3.org/TR/2001/REC-SVG-20010904/DTD/svg10.dtd">
<svg version="1.0" xmlns="http://www.w3.org/2000/svg"
     width="200.000000pt" height="200.000000pt" viewBox="0 0 200.000000 200.000000"
     preserveAspectRatio="xMidYMid meet">

    <g transform="translate(0.000000,200.000000) scale(0.100000,-0.100000)"
       fill="#000000" stroke="none">
        <path d="M0 1000 l0 -1000 1000 0 1000 0 0 1000 0 1000 -1000 0 -1000 0 0
-1000z m1856 447 c-3 -12 -10 -46 -16 -75 -7 -28 -15 -52 -18 -52 -4 0 -15 14
-24 30 -9 17 -33 40 -53 51 -20 12 -34 24 -31 26 6 6 117 41 135 42 9 1 11 -6
7 -22z m-1103 -32 c27 -10 89 -44 138 -76 49 -33 94 -59 99 -59 5 0 50 26 99
59 108 70 161 91 262 98 127 9 247 -31 340 -114 205 -185 198 -524 -14 -694
-106 -84 -203 -115 -333 -106 -107 7 -135 17 -257 91 l-105 64 -68 -45 c-37
-25 -97 -60 -133 -77 -62 -29 -73 -31 -181 -31 -132 0 -180 14 -272 78 -104
72 -168 176 -188 305 -36 228 110 455 331 517 68 19 215 14 282 -10z"/>
        <path d="M485 1300 c-117 -38 -209 -149 -223 -272 -15 -122 13 -205 95 -290
57 -58 127 -89 215 -96 95 -7 142 10 285 100 68 43 126 78 129 78 2 0 57 -34
121 -75 138 -89 198 -109 294 -103 121 9 238 88 288 193 32 67 39 172 17 248
-47 161 -226 263 -398 228 -42 -9 -89 -33 -188 -97 l-132 -85 -122 80 c-171
112 -252 132 -381 91z m169 -210 c23 -11 65 -41 95 -67 l53 -47 -33 -28 c-128
-108 -191 -124 -255 -65 -31 28 -37 41 -41 83 -5 60 21 108 70 129 44 19 64
18 111 -5z m785 -5 c16 -8 33 -21 37 -27 5 -9 3 -9 -9 1 -9 7 -17 9 -17 4 0
-5 11 -15 25 -21 22 -10 24 -16 22 -67 -3 -46 -8 -60 -31 -83 -16 -15 -26 -20
-22 -12 6 12 5 12 -6 -1 -26 -31 -131 -29 -112 3 5 7 3 8 -5 4 -15 -10 -53 23
-44 38 4 7 1 6 -8 -1 -13 -10 -21 -6 -49 23 -24 26 -30 38 -21 47 6 6 11 7 11
3 0 -5 9 3 21 18 11 14 39 35 62 46 23 10 38 20 32 20 -5 0 -4 4 2 8 23 14 82
13 112 -3z"/>
        <path d="M1243 945 c0 -8 4 -12 9 -9 5 3 6 10 3 15 -9 13 -12 11 -12 -6z"/>
    </g>
</svg>
